<?xml version="1.0" standalone="no"?>
<!DOCTYPE svg PUBLIC "-//W3C//DTD SVG 20010904//EN"
 "http://www.w3.org/TR/2001/REC-SVG-20010904/DTD/svg10.dtd">
<svg version="1.0" xmlns="http://www.w3.org/2000/svg"
 width="512.000000pt" height="512.000000pt" viewBox="0 0 512.000000 512.000000"
 preserveAspectRatio="xMidYMid meet">
<metadata>
Created by potrace 1.11, written by Peter Selinger 2001-2013
</metadata>
<g transform="translate(0.000000,512.000000) scale(0.100000,-0.100000)"
fill="#000000" stroke="none">
<path d="M2100 4963 c-63 -13 -139 -29 -168 -34 -75 -15 -77 -23 -46 -178 18
-95 22 -135 15 -149 -6 -11 -43 -31 -88 -47 -43 -16 -112 -44 -153 -63 -71
-33 -84 -37 -121 -33 -9 0 -47 47 -85 104 -73 108 -89 126 -114 127 -9 0 -85
-46 -170 -102 -119 -79 -156 -109 -158 -127 -3 -17 17 -55 67 -127 43 -62 71
-113 71 -128 0 -20 -30 -55 -127 -151 -73 -71 -136 -125 -147 -125 -10 0 -68
32 -128 71 -78 50 -117 69 -135 67 -21 -2 -46 -33 -130 -156 -89 -129 -103
-156 -96 -176 5 -15 50 -52 118 -97 87 -59 111 -79 113 -100 2 -14 -13 -59
-32 -101 -19 -41 -49 -112 -66 -157 -36 -93 -49 -101 -134 -83 -78 17 -106 22
-162 29 -47 5 -53 3 -67 -18 -19 -31 -80 -344 -72 -369 8 -25 64 -40 237 -67
67 -10 70 -20 71 -219 1 -165 -1 -178 -19 -193 -11 -9 -75 -27 -142 -40 -166
-32 -162 -26 -127 -193 15 -73 29 -146 32 -162 8 -50 22 -76 44 -84 13 -5 68
1 145 17 153 30 162 28 194 -61 13 -34 43 -105 67 -157 32 -70 41 -100 36
-118 -5 -13 -51 -51 -118 -95 -86 -57 -111 -79 -113 -99 -4 -36 194 -323 226
-327 15 -2 59 20 132 67 59 39 119 71 132 71 31 0 278 -241 278 -272 0 -11
-31 -67 -70 -124 -42 -62 -70 -113 -70 -129 0 -22 21 -39 153 -125 83 -55 161
-100 173 -100 30 0 46 16 104 105 67 102 88 125 115 125 13 0 62 -17 111 -39
49 -21 122 -51 162 -66 39 -15 72 -32 73 -38 0 -7 2 -19 4 -28 1 -9 -8 -68
-21 -130 -26 -122 -24 -145 9 -159 24 -11 330 -70 359 -70 22 0 45 34 52 80 3
19 8 46 11 60 3 14 10 47 15 74 19 96 12 93 223 92 134 -1 188 -5 199 -14 9
-7 22 -43 29 -80 7 -37 14 -69 14 -72 1 -3 5 -25 9 -50 10 -56 21 -77 44 -84
10 -3 76 5 147 19 72 15 141 28 155 31 74 14 82 17 90 40 7 16 5 45 -5 87 -8
34 -16 73 -18 87 -3 14 -8 41 -12 61 -9 49 6 75 52 90 40 13 169 65 238 95 75
33 80 31 145 -66 66 -99 110 -150 129 -150 9 0 87 46 172 103 123 82 155 107
157 127 2 18 -19 57 -72 133 -53 77 -72 114 -69 128 8 28 242 258 270 265 17
5 52 -13 134 -66 78 -50 118 -70 136 -68 21 2 46 32 128 153 99 144 115 182
89 204 -5 4 -54 36 -109 71 -55 36 -103 69 -107 75 -14 19 -8 55 16 103 13 26
40 90 61 142 21 52 45 103 53 113 19 21 29 21 190 -9 75 -13 107 -15 120 -8
18 12 37 58 45 114 3 19 15 84 27 143 27 139 25 147 -52 163 -62 13 -126 25
-158 30 -40 6 -80 29 -81 47 -1 14 -1 339 0 349 2 14 46 36 81 42 19 3 44 8
55 10 11 2 48 9 82 16 84 17 97 33 84 102 -61 324 -69 342 -138 328 -21 -4
-79 -16 -130 -26 -119 -23 -132 -18 -163 68 -13 34 -41 101 -63 148 -21 47
-41 94 -43 106 -5 27 12 43 131 122 77 52 101 73 103 92 2 18 -21 60 -79 145
-117 172 -127 185 -152 185 -12 0 -69 -32 -127 -70 -61 -41 -115 -70 -130 -70
-32 1 -280 240 -280 270 0 12 31 67 68 123 38 56 71 110 75 119 10 27 -18 50
-175 152 -105 67 -154 93 -168 89 -12 -3 -46 -43 -78 -91 -110 -163 -107 -161
-223 -109 -41 19 -109 46 -152 62 -111 40 -112 43 -82 195 13 69 25 131 25
137 0 18 -39 40 -80 47 -19 3 -57 10 -85 15 -27 6 -59 12 -70 14 -142 29 -155
30 -181 12 -14 -9 -24 -19 -21 -21 3 -3 0 -24 -5 -47 -5 -23 -12 -51 -14 -62
-3 -11 -10 -46 -15 -77 -6 -32 -18 -63 -27 -70 -22 -19 -359 -21 -388 -3 -16
11 -26 35 -40 107 -10 51 -19 96 -20 101 -1 4 -2 16 -3 27 -1 28 -37 60 -63
59 -13 -1 -75 -12 -138 -26z m680 -828 c133 -21 178 -31 285 -65 597 -191
1031 -711 1105 -1325 18 -144 13 -339 -10 -450 -5 -22 -11 -53 -14 -70 -3 -16
-17 -67 -30 -113 -93 -308 -288 -594 -541 -790 -44 -34 -85 -66 -90 -70 -65
-51 -280 -156 -400 -195 -210 -68 -340 -87 -560 -82 -88 2 -176 6 -195 10
-144 26 -301 67 -365 95 -186 82 -282 136 -400 226 -332 253 -556 630 -611
1033 -3 25 -8 57 -10 71 -6 31 -6 267 0 295 2 11 7 47 11 80 13 112 38 206 87
332 125 325 350 596 653 789 175 111 454 209 654 230 25 2 46 6 48 8 10 9 310
2 383 -9z"/>
<path d="M2300 3970 c-109 -20 -226 -52 -320 -90 -117 -46 -301 -154 -374
-219 -222 -199 -338 -355 -440 -591 -18 -43 -65 -204 -71 -245 -3 -16 -9 -57
-14 -90 -25 -166 2 -457 59 -625 139 -414 496 -759 934 -904 171 -57 264 -70
486 -70 227 0 318 13 499 75 157 53 363 165 451 245 229 208 330 338 421 546
86 197 119 363 114 588 -4 206 -33 353 -101 513 -187 437 -585 754 -1078 859
-144 30 -418 34 -566 8z m180 -594 l0 -273 -42 4 c-46 4 -202 24 -229 28 -25
5 -154 37 -157 40 -6 5 75 166 115 227 59 90 155 183 227 218 33 17 65 30 73
30 10 0 13 -52 13 -274z m229 254 c130 -59 268 -225 340 -407 l20 -50 -40 -12
c-56 -17 -192 -40 -269 -47 -36 -3 -77 -7 -92 -9 l-28 -3 0 274 c0 213 3 274
13 274 6 0 32 -9 56 -20z m-601 -38 c-57 -63 -117 -157 -167 -262 l-47 -98
-43 19 c-24 10 -48 19 -55 19 -6 0 -35 14 -65 31 l-54 31 45 43 c88 85 215
169 343 227 80 35 83 35 43 -10z m996 -14 c119 -60 197 -114 296 -205 34 -32
34 -33 15 -47 -27 -20 -186 -99 -189 -95 -2 2 -14 29 -27 59 -48 113 -120 229
-193 309 -31 33 -31 33 -6 26 14 -4 61 -25 104 -47z m-1482 -393 c24 -14 85
-46 136 -71 66 -32 92 -50 88 -60 -5 -13 -30 -136 -41 -199 -2 -16 -8 -70 -11
-120 -4 -49 -8 -92 -10 -94 -2 -2 -95 -4 -206 -4 l-203 -1 3 65 c6 124 80 329
166 461 17 26 32 48 33 48 1 0 22 -11 45 -25z m1971 -52 c61 -103 93 -177 123
-287 32 -119 41 -202 22 -207 -7 -3 -100 -4 -207 -4 -163 0 -195 3 -196 15 -1
8 -5 51 -9 95 -6 86 -28 217 -46 285 -6 24 -8 46 -3 49 4 4 46 25 93 46 47 21
101 49 120 61 19 13 40 23 46 23 5 1 31 -34 57 -76z m-439 -278 c3 -22 8 -74
11 -115 4 -41 8 -80 10 -87 6 -18 -9 -19 -205 -17 -102 2 -218 3 -257 4 l-73
0 0 150 c0 113 3 150 13 151 6 1 28 3 47 4 70 5 301 49 385 73 l30 9 17 -66
c10 -36 20 -84 22 -106z m-924 111 c19 -3 53 -7 75 -11 22 -3 69 -7 105 -9
l65 -4 3 -151 3 -151 -73 0 c-40 0 -160 -1 -266 -3 -122 -1 -192 2 -193 8 -1
17 2 107 6 124 1 9 6 39 9 66 4 28 14 80 22 116 l15 66 97 -23 c53 -13 112
-26 132 -28z m-452 -490 c7 -4 12 -27 12 -53 0 -58 27 -240 46 -317 8 -32 12
-62 7 -66 -4 -3 -46 -23 -92 -44 -47 -21 -102 -49 -123 -62 -20 -13 -41 -24
-45 -24 -23 0 -125 193 -162 306 -30 94 -57 234 -49 256 4 10 49 13 199 13
107 -1 200 -4 207 -9z m625 4 l77 0 0 -150 c0 -82 -3 -150 -7 -151 -5 0 -35
-2 -68 -5 -33 -2 -89 -11 -125 -19 -36 -8 -81 -17 -100 -20 -58 -10 -116 -24
-144 -34 -32 -13 -39 -2 -56 94 -7 39 -14 79 -16 90 -2 11 -7 51 -10 90 -4 38
-8 76 -9 85 -1 8 4 17 11 20 7 3 93 4 191 3 98 -1 213 -3 256 -3z m765 1 c7
-1 11 -4 9 -8 -3 -5 -8 -48 -11 -98 -4 -49 -16 -130 -27 -180 -10 -49 -19 -90
-19 -91 0 -1 -24 4 -52 12 -74 20 -198 43 -271 50 -34 4 -73 8 -87 9 -14 2
-35 3 -47 4 -23 1 -23 2 -23 154 l0 152 258 -2 c141 0 263 -2 270 -2z m580
-10 c14 -42 -43 -262 -98 -379 -24 -50 -90 -163 -106 -181 -1 -2 -29 13 -62
33 -32 19 -93 52 -136 72 -52 25 -75 41 -72 50 5 12 25 109 41 199 3 17 8 68
12 115 3 47 9 90 13 95 5 6 86 10 206 10 155 0 198 -3 202 -14z m-1270 -729
c2 -224 0 -272 -11 -272 -26 0 -132 60 -173 98 -51 47 -144 162 -144 178 0 7
-3 14 -8 16 -6 3 -92 171 -92 181 0 13 208 55 313 63 45 4 84 8 86 10 22 20
26 -24 29 -274z m282 263 c77 -7 208 -30 267 -48 l41 -12 -27 -65 c-76 -177
-195 -320 -315 -380 -33 -17 -65 -30 -73 -30 -10 0 -13 51 -13 268 0 148 3
271 6 275 3 3 15 4 27 2 12 -2 51 -6 87 -10z m-807 -235 c37 -77 80 -148 122
-200 35 -44 63 -80 61 -80 -9 0 -86 34 -141 62 -97 50 -176 106 -269 191 -39
35 -40 38 -22 50 27 17 180 97 186 96 3 0 31 -54 63 -119z m1353 79 c7 -5 14
-6 16 -1 1 5 30 -7 63 -26 l59 -35 -54 -50 c-88 -79 -187 -146 -295 -198 -55
-27 -104 -49 -108 -49 -5 0 14 26 41 58 26 31 62 80 79 107 41 66 113 209 113
224 0 12 61 -9 86 -30z"/>
</g>
</svg>
